{"glyphs":{"0":{"ha":1125,"x_min":99,"x_max":1203,"o":"m 119 549 q 127 306 99 410 q 219 135 156 203 q 371 33 282 67 q 558 0 460 0 q 760 35 658 0 q 949 138 863 69 q 1098 310 1036 207 q 1181 549 1160 413 q 1173 798 1203 692 q 1078 975 1143 904 q 922 1080 1013 1046 q 729 1114 831 1114 q 531 1080 631 1114 q 348 976 432 1046 q 203 801 264 907 q 119 549 142 694 m 569 65 q 508 109 531 65 q 475 224 485 153 q 468 387 465 296 q 485 572 471 478 q 522 749 499 663 q 574 901 544 835 q 642 1009 604 968 q 722 1050 679 1050 q 794 1010 767 1050 q 832 906 821 971 q 841 756 843 840 q 825 583 839 672 q 785 395 811 488 q 725 229 758 303 q 651 110 692 156 q 569 65 611 65 "},"1":{"ha":571,"x_min":128,"x_max":654,"o":"m 128 22 l 486 22 l 654 1079 l 643 1089 l 222 1025 l 214 961 q 251 944 240 961 q 263 905 261 928 q 260 858 264 882 q 254 818 257 833 l 128 22 "},"2":{"ha":1047,"x_min":115,"x_max":1065,"o":"m 115 22 l 185 22 q 201 46 188 36 q 232 61 214 56 q 269 69 250 67 q 306 72 289 72 q 384 61 342 72 q 472 36 426 50 q 563 11 517 22 q 650 0 608 0 q 782 28 717 0 q 903 106 847 57 q 998 219 958 154 q 1053 357 1038 283 l 992 374 q 951 292 978 314 q 889 271 925 271 q 827 283 858 271 q 758 309 796 294 q 672 335 719 324 q 563 347 625 347 q 479 343 515 347 q 413 330 443 339 q 356 306 383 321 q 297 271 329 292 q 375 351 315 317 q 515 417 435 386 q 683 481 594 449 q 850 555 772 513 q 984 653 928 597 q 1053 786 1040 708 q 1035 926 1065 865 q 945 1028 1004 988 q 806 1091 886 1069 q 642 1113 726 1113 q 488 1096 564 1113 q 351 1044 413 1079 q 246 957 289 1010 q 192 832 203 904 q 197 761 186 793 q 230 706 207 729 q 286 671 253 683 q 358 658 319 658 q 437 674 404 658 q 491 712 469 689 q 524 763 513 735 q 538 817 535 792 q 532 863 540 844 q 513 899 524 882 q 496 935 503 915 q 493 985 489 956 q 512 1025 496 1006 q 563 1044 528 1044 q 631 1021 603 1044 q 673 958 660 997 q 683 867 686 918 q 657 764 679 817 q 593 674 636 713 q 497 594 550 635 q 385 508 444 554 q 274 396 326 461 q 178 240 221 331 q 115 22 136 150 "},"3":{"ha":999,"x_min":108,"x_max":1054,"o":"m 117 324 q 124 219 108 276 q 186 114 140 163 q 310 33 232 65 q 506 0 389 0 q 708 26 622 0 q 853 94 794 51 q 944 190 911 136 q 986 300 976 244 q 963 467 1001 389 q 843 575 925 544 q 983 660 931 599 q 1046 797 1035 722 q 1036 910 1054 854 q 969 1011 1018 967 q 839 1084 919 1056 q 642 1113 758 1113 q 488 1096 564 1113 q 351 1044 413 1079 q 246 957 289 1010 q 192 832 203 904 q 197 761 186 793 q 230 706 207 729 q 286 671 253 683 q 358 658 319 658 q 437 674 404 658 q 491 712 469 689 q 524 763 513 735 q 538 817 535 792 q 532 863 540 844 q 513 899 524 882 q 496 935 503 915 q 493 985 489 956 q 523 1026 497 1011 q 582 1042 549 1042 q 633 1031 607 1042 q 678 995 660 1019 q 706 932 697 971 q 706 836 715 893 q 685 761 700 800 q 646 690 669 722 q 590 638 622 658 q 514 618 557 618 l 401 618 l 390 556 l 471 556 q 555 531 521 556 q 608 468 589 507 q 631 381 626 429 q 628 282 636 332 q 607 201 622 240 q 569 131 592 161 q 518 84 547 101 q 453 67 489 67 q 416 72 439 67 q 374 89 393 76 q 342 124 354 101 q 335 181 329 146 q 356 223 339 210 q 392 247 372 236 q 428 276 411 258 q 453 335 446 294 q 450 403 460 374 q 421 452 440 432 q 374 482 401 472 q 314 492 346 492 q 250 481 282 492 q 191 450 218 471 q 144 398 164 429 q 117 324 124 367 "},"4":{"ha":1008,"x_min":118,"x_max":1082,"o":"m 324 683 q 267 540 313 614 q 118 368 221 467 l 618 368 l 563 22 l 922 22 l 1082 1022 l 722 1022 l 631 432 l 275 433 q 370 556 315 490 q 479 697 425 622 q 576 856 533 772 q 633 1031 619 939 q 631 1133 643 1090 q 592 1205 618 1176 q 529 1247 565 1233 q 456 1260 493 1260 q 346 1228 396 1260 q 286 1138 296 1197 q 290 1051 279 1092 q 314 963 301 1011 q 333 848 326 914 q 324 683 340 782 "},"5":{"ha":888,"x_min":51,"x_max":961,"o":"m 60 324 q 67 219 51 276 q 129 114 83 163 q 253 33 175 65 q 449 0 332 0 q 646 30 558 0 q 797 109 733 60 q 898 221 860 158 q 946 349 936 283 q 928 512 961 443 q 833 625 896 581 q 688 692 771 669 q 521 714 606 714 q 374 697 444 714 q 250 647 303 681 l 279 801 q 390 785 333 792 q 504 778 447 778 q 646 792 578 778 q 770 841 714 806 q 866 936 826 876 q 922 1088 906 996 l 911 1103 q 772 1062 863 1074 q 579 1050 681 1050 q 381 1059 476 1050 q 229 1079 286 1068 l 143 533 l 206 533 q 278 594 229 572 q 381 615 326 615 q 470 599 426 615 q 546 546 514 582 q 592 452 578 510 q 594 313 607 394 q 569 220 586 265 q 526 141 551 175 q 467 87 500 107 q 396 67 433 67 q 359 72 382 67 q 317 89 336 76 q 285 124 297 101 q 278 181 272 146 q 299 223 282 210 q 335 247 315 236 q 372 276 354 258 q 396 335 389 294 q 393 403 403 374 q 364 452 383 432 q 317 482 344 472 q 257 492 289 492 q 193 481 225 492 q 134 450 161 471 q 87 398 107 429 q 60 324 67 367 "},"6":{"ha":926,"x_min":42,"x_max":1018,"o":"m 646 1113 q 415 1065 518 1113 q 236 939 311 1017 q 115 761 161 861 q 56 556 69 661 q 61 351 42 451 q 136 174 81 251 q 285 48 192 96 q 513 0 379 0 q 701 26 618 0 q 842 94 783 51 q 935 192 900 138 q 978 304 969 246 q 969 453 992 390 q 899 559 946 517 q 790 622 853 601 q 660 643 726 643 q 535 624 596 643 q 425 567 474 606 q 471 762 443 674 q 533 914 499 850 q 608 1013 568 978 q 688 1047 647 1047 q 743 1026 729 1047 q 754 985 757 1006 q 736 935 750 956 q 706 899 722 915 q 676 863 690 882 q 657 817 663 844 q 654 763 651 792 q 671 712 657 735 q 713 674 685 689 q 786 658 740 658 q 862 671 825 658 q 929 706 899 683 q 981 761 960 729 q 1007 832 1001 793 q 992 957 1018 904 q 915 1044 967 1010 q 794 1096 864 1079 q 646 1113 724 1113 m 490 58 q 438 97 456 58 q 417 191 419 135 q 425 314 414 247 q 458 437 436 381 q 509 531 479 493 q 575 569 539 569 q 622 531 607 569 q 638 437 636 493 q 628 314 639 381 q 598 191 618 247 q 550 97 578 135 q 490 58 522 58 "},"7":{"ha":971,"x_min":304,"x_max":1111,"o":"m 364 1074 l 304 683 l 360 683 q 383 756 367 726 q 419 803 399 785 q 461 828 440 821 q 499 836 482 836 q 565 825 536 836 q 624 801 594 814 q 688 776 653 788 q 771 765 722 765 q 838 771 801 765 q 922 790 875 776 q 663 603 771 699 q 483 411 556 508 q 370 216 411 314 q 310 21 329 118 l 663 21 q 721 302 690 188 q 783 494 751 417 q 848 620 815 572 q 913 703 881 668 q 974 765 944 738 q 1028 831 1003 793 q 1073 923 1053 868 q 1107 1065 1093 978 q 1089 1099 1111 1092 q 1068 1097 1079 1101 q 1054 1082 1057 1093 q 1007 1040 1044 1040 q 951 1052 983 1040 q 880 1077 919 1064 q 794 1102 840 1090 q 699 1114 749 1114 q 579 1093 640 1114 q 454 1015 518 1072 q 461 1031 458 1025 q 467 1042 464 1036 q 472 1056 469 1047 q 475 1078 474 1064 q 463 1104 478 1096 q 428 1113 449 1113 q 387 1103 407 1113 q 364 1074 367 1093 "},"8":{"ha":910,"x_min":74,"x_max":950,"o":"m 83 324 q 97 192 74 251 q 169 92 119 133 q 294 27 219 50 q 464 4 369 4 q 640 27 558 4 q 782 92 721 50 q 881 192 843 133 q 929 324 919 251 q 898 490 940 419 q 768 601 856 561 q 890 697 844 638 q 943 832 936 756 q 927 948 950 896 q 858 1037 904 1000 q 742 1094 811 1074 q 588 1114 674 1114 q 428 1094 501 1114 q 301 1037 356 1074 q 215 948 247 1000 q 175 832 182 896 q 203 694 168 754 q 308 599 238 635 q 155 488 214 558 q 83 324 96 417 m 461 68 q 417 103 432 68 q 401 193 403 139 q 410 309 400 247 q 438 425 419 371 q 481 515 456 479 q 535 550 506 550 q 578 515 564 550 q 594 425 593 479 q 587 309 596 371 q 560 193 578 247 q 517 103 542 139 q 461 68 492 68 m 529 619 q 490 651 503 619 q 476 731 478 683 q 482 835 474 779 q 507 938 490 890 q 547 1018 524 986 q 596 1050 569 1050 q 633 1018 621 1050 q 648 938 646 986 q 642 835 650 890 q 617 731 633 779 q 578 651 601 683 q 529 619 556 619 "},"9":{"ha":1013,"x_min":108,"x_max":1085,"o":"m 119 282 q 135 157 108 210 q 212 69 161 104 q 333 18 263 35 q 481 1 403 1 q 712 49 608 1 q 890 175 815 97 q 1011 353 965 253 q 1071 558 1057 453 q 1065 763 1085 663 q 990 940 1046 863 q 841 1066 935 1018 q 614 1114 747 1114 q 426 1088 508 1114 q 285 1019 343 1063 q 192 922 226 976 q 149 810 157 868 q 158 661 135 725 q 227 555 181 597 q 337 492 274 513 q 467 471 400 471 q 592 490 531 471 q 701 547 653 508 q 656 352 683 440 q 593 200 628 264 q 519 101 558 136 q 439 67 479 67 q 383 88 397 67 q 372 129 369 108 q 390 178 376 158 q 420 215 404 199 q 450 251 436 232 q 469 297 464 269 q 472 351 475 322 q 456 402 469 379 q 414 440 442 425 q 340 456 386 456 q 265 443 301 456 q 197 408 228 431 q 147 353 167 385 q 119 282 126 321 m 551 544 q 505 583 519 544 q 489 677 490 621 q 498 800 488 733 q 528 923 508 867 q 576 1017 549 979 q 636 1056 604 1056 q 689 1017 671 1056 q 710 923 707 979 q 701 800 713 867 q 669 677 690 733 q 617 583 647 621 q 551 544 588 544 "},"\u0000":{"ha":0,"x_min":0,"x_max":0,"o":""},"\r":{"ha":347,"x_min":0,"x_max":0,"o":""}," ":{"ha":347,"x_min":0,"x_max":0,"o":""},"a":{"ha":1132,"x_min":78,"x_max":1299,"o":"m 510 813 q 289 752 379 813 q 149 601 199 692 q 88 405 99 511 q 108 208 78 299 q 209 58 139 118 q 390 -3 279 -3 q 556 38 482 -3 q 681 156 629 79 q 741 44 694 89 q 888 0 788 0 q 1050 38 979 0 q 1172 139 1121 75 q 1253 285 1222 203 q 1299 458 1285 368 l 1235 458 q 1168 251 1211 319 q 1089 182 1125 182 q 1040 232 1057 182 q 1040 382 1024 282 l 1079 618 q 1107 721 1090 681 q 1164 761 1124 761 l 1167 782 l 758 782 l 744 772 l 731 681 q 643 778 699 743 q 510 813 588 813 m 444 396 q 520 623 469 547 q 617 699 571 699 q 689 619 663 699 q 692 379 715 540 q 623 172 671 239 q 529 104 575 104 q 483 123 504 104 q 450 178 463 142 q 435 269 438 215 q 444 396 432 324 "},"b":{"ha":1075,"x_min":32,"x_max":1086,"o":"m 175 925 l 32 22 l 265 22 q 337 33 310 22 q 378 59 364 43 q 399 93 393 75 q 408 126 406 111 l 418 188 q 499 51 442 104 q 657 -3 557 -3 q 822 29 750 -3 q 947 113 894 61 q 1031 233 999 165 q 1074 372 1063 300 q 1074 531 1086 453 q 1026 672 1063 610 q 926 774 989 735 q 776 813 864 813 q 607 770 676 813 q 493 661 538 728 l 558 1079 l 547 1089 l 138 1089 l 135 1068 q 181 1028 175 1068 q 175 925 186 988 m 540 103 q 474 189 497 110 q 474 421 451 268 q 540 626 493 558 q 633 696 588 693 q 715 625 683 699 q 721 404 746 551 q 641 171 694 246 q 540 103 588 96 "},"c":{"ha":950,"x_min":78,"x_max":1118,"o":"m 90 408 q 99 258 78 332 q 176 128 121 185 q 324 35 232 71 q 546 0 417 0 q 756 28 658 0 q 928 113 853 56 q 1052 256 1003 169 q 1118 458 1101 342 l 1054 458 q 1004 307 1040 371 q 920 201 968 243 q 816 138 872 158 q 703 117 760 117 q 537 164 597 117 q 451 282 476 211 q 432 435 426 353 q 465 588 438 517 q 538 706 493 658 q 636 753 583 753 q 703 713 685 753 q 713 625 721 674 q 695 567 707 589 q 672 532 683 546 q 650 509 660 518 q 639 488 640 500 q 649 454 636 471 q 683 424 661 438 q 736 403 706 411 q 800 394 767 394 q 936 433 889 394 q 992 526 983 471 q 978 652 1003 597 q 904 743 954 707 q 785 798 854 779 q 638 817 715 817 q 460 792 550 817 q 292 717 369 768 q 161 590 215 667 q 90 408 107 513 "},"d":{"ha":1133,"x_min":79,"x_max":1300,"o":"m 511 813 q 290 752 381 813 q 149 601 200 692 q 89 405 99 511 q 109 208 79 299 q 210 58 139 118 q 392 -3 281 -3 q 557 38 483 -3 q 682 156 631 79 q 742 44 696 89 q 889 0 789 0 q 1051 38 981 0 q 1173 139 1122 75 q 1255 285 1224 203 q 1300 458 1286 368 l 1236 458 q 1169 251 1213 319 q 1090 182 1126 182 q 1042 232 1058 182 q 1042 382 1026 282 l 1154 1086 l 1144 1096 l 735 1096 l 732 1075 q 777 1035 772 1075 q 772 932 782 994 l 732 681 q 644 778 700 743 q 511 813 589 813 m 532 104 q 486 121 507 103 q 452 176 465 139 q 436 268 439 213 q 446 396 433 324 q 520 621 471 546 q 615 697 569 696 q 690 622 663 700 q 693 379 717 543 q 625 174 672 240 q 532 104 578 107 "},"e":{"ha":953,"x_min":78,"x_max":1118,"o":"m 90 408 q 99 258 78 332 q 176 128 119 185 q 324 35 232 71 q 546 0 417 0 q 756 28 658 0 q 928 113 853 56 q 1052 256 1003 169 q 1118 458 1101 342 l 1054 458 q 1004 307 1040 371 q 920 201 968 243 q 816 138 872 158 q 703 117 760 117 q 582 139 632 117 q 499 198 532 161 q 451 283 467 235 q 432 385 435 332 q 497 357 447 371 q 613 343 547 343 q 777 378 708 343 q 885 466 846 414 q 930 580 924 518 q 906 694 936 642 q 806 781 875 746 q 624 817 736 817 q 450 792 538 817 q 288 716 363 767 q 160 588 214 665 q 90 408 107 511 m 658 753 q 694 730 682 753 q 706 672 707 707 q 688 596 704 636 q 638 520 671 556 q 553 462 604 485 q 432 439 503 439 q 457 555 436 499 q 510 655 478 611 q 581 726 542 699 q 658 753 619 753 "},"f":{"ha":728,"x_min":-258,"x_max":879,"o":"m -249 -194 q -242 -306 -258 -257 q -194 -388 -226 -354 q -114 -440 -161 -422 q -14 -458 -67 -458 q 108 -434 46 -458 q 226 -359 171 -410 q 322 -229 281 -308 q 381 -39 364 -150 l 381 -40 l 494 690 l 774 690 l 786 754 l 506 754 l 542 982 q 568 1053 549 1026 q 607 1079 588 1079 q 640 1064 629 1079 q 649 1025 651 1049 q 640 997 646 1007 q 628 976 635 986 q 615 951 621 965 q 604 910 608 936 q 637 833 597 860 q 729 806 676 806 q 822 831 778 806 q 872 910 865 856 q 859 1001 879 960 q 801 1074 839 1043 q 710 1124 763 1106 q 600 1142 658 1142 q 455 1122 528 1142 q 321 1060 382 1103 q 215 950 260 1017 q 154 789 171 883 l 149 757 l 64 757 l 54 692 l 138 692 l 36 51 q -96 1 -36 33 q -192 -74 -146 -26 q -249 -194 -237 -122 m -126 -285 q -167 -260 -150 -285 q -176 -194 -183 -236 q -149 -128 -171 -157 q -97 -79 -126 -100 q -35 -44 -68 -58 q 25 -19 -3 -29 q -47 -223 -1 -161 q -126 -285 -92 -285 "},"g":{"ha":1082,"x_min":88,"x_max":1247,"o":"m 514 813 q 301 758 389 813 q 162 621 213 703 q 99 443 111 539 q 117 265 88 347 q 219 128 147 183 q 407 74 290 74 q 528 98 472 74 q 629 167 585 122 l 613 51 q 481 1 540 33 q 385 -74 431 -26 q 328 -194 339 -122 q 334 -306 318 -257 q 383 -390 350 -356 q 464 -442 417 -424 q 564 -460 511 -460 q 685 -435 624 -460 q 802 -360 747 -411 q 898 -229 857 -308 q 957 -40 939 -150 l 972 54 q 1071 104 1026 74 q 1149 183 1115 135 q 1208 298 1183 231 q 1247 458 1232 365 l 1183 458 q 1117 254 1161 328 q 986 142 1072 181 l 1089 782 l 742 782 l 728 772 l 715 693 q 635 781 685 749 q 514 813 585 813 m 532 171 q 460 238 488 171 q 456 435 433 304 q 524 642 479 574 q 611 708 569 710 q 677 635 653 707 q 679 419 701 564 q 617 232 660 293 q 532 171 574 171 m 450 -285 q 410 -260 426 -285 q 400 -194 393 -236 q 428 -128 407 -157 q 479 -79 450 -100 q 541 -44 508 -58 q 601 -19 574 -29 q 530 -223 575 -161 q 450 -285 485 -285 "},"h":{"ha":1114,"x_min":32,"x_max":1278,"o":"m 175 925 l 32 22 l 414 22 l 461 313 q 499 460 475 400 q 552 556 524 519 q 610 610 581 593 q 663 626 639 626 q 703 601 690 626 q 700 519 715 576 l 658 363 q 638 235 642 300 q 656 119 635 171 q 727 33 676 67 q 868 0 778 0 q 1030 38 960 0 q 1151 139 1100 75 q 1233 285 1201 203 q 1278 458 1264 368 l 1214 458 q 1148 251 1190 319 q 1069 183 1106 183 q 1033 201 1047 183 q 1014 244 1019 218 q 1010 303 1008 271 q 1018 364 1011 335 l 1056 519 q 1059 634 1071 581 q 1015 728 1047 688 q 929 792 982 768 q 807 815 876 815 q 714 799 761 815 q 622 749 667 783 q 539 663 578 715 q 472 538 500 611 l 558 1079 l 547 1089 l 138 1089 l 135 1068 q 181 1028 175 1068 q 175 925 186 988 "},"i":{"ha":539,"x_min":72,"x_max":704,"o":"m 101 460 q 85 360 94 413 q 74 257 76 308 q 79 159 72 206 q 110 77 86 113 q 178 21 133 42 q 294 0 222 0 q 456 38 386 0 q 577 139 526 75 q 659 285 628 203 q 704 458 690 368 l 640 458 q 574 251 617 319 q 496 183 532 183 q 450 211 463 183 q 438 281 438 239 q 445 370 438 322 q 458 458 453 418 l 508 772 l 499 782 l 89 782 l 86 761 q 122 744 111 761 q 134 705 132 728 q 133 658 136 682 q 126 618 129 633 l 101 460 m 179 988 q 212 889 172 933 q 339 844 251 844 q 419 858 385 844 q 478 892 454 871 q 517 940 503 913 q 533 996 531 967 q 529 1051 536 1024 q 503 1099 522 1078 q 455 1134 485 1121 q 383 1147 425 1147 q 300 1133 336 1147 q 238 1097 264 1119 q 198 1046 213 1075 q 179 988 183 1017 "},"j":{"ha":521,"x_min":-258,"x_max":686,"o":"m -249 -194 q -242 -306 -258 -257 q -194 -388 -226 -354 q -114 -440 -161 -422 q -14 -458 -67 -458 q 108 -434 46 -458 q 226 -359 171 -410 q 322 -229 281 -308 q 381 -39 364 -150 l 381 -40 l 396 54 q 497 104 450 74 q 581 183 543 135 q 644 298 618 231 q 686 458 671 365 l 622 458 q 549 253 600 326 q 410 142 497 181 l 508 772 l 499 782 l 89 782 l 86 761 q 131 721 126 761 q 126 618 136 681 l 36 51 q -96 1 -36 33 q -192 -74 -146 -26 q -249 -194 -237 -122 m 179 988 q 212 889 172 933 q 339 844 251 844 q 419 858 385 844 q 478 892 454 871 q 517 940 503 913 q 533 996 531 967 q 529 1051 536 1024 q 503 1099 522 1078 q 455 1134 485 1121 q 383 1147 425 1147 q 300 1133 336 1147 q 238 1097 264 1119 q 198 1046 213 1075 q 179 988 183 1017 m -126 -285 q -167 -260 -150 -285 q -176 -194 -183 -236 q -149 -128 -171 -157 q -97 -79 -126 -100 q -35 -44 -68 -58 q 25 -19 -3 -29 q -47 -223 -1 -161 q -126 -285 -92 -285 "},"k":{"ha":964,"x_min":32,"x_max":1129,"o":"m 175 925 l 32 22 l 386 22 l 438 335 q 456 376 442 361 q 486 390 471 390 q 520 365 506 390 q 528 282 535 339 q 521 161 518 214 q 544 73 524 108 q 607 19 565 38 q 718 0 649 0 q 881 38 810 0 q 1002 139 951 75 q 1084 285 1053 203 q 1129 458 1115 368 l 1065 458 q 1035 335 1054 388 q 994 249 1015 283 q 950 199 972 215 q 911 182 928 182 q 892 190 897 182 q 887 213 886 199 q 892 244 888 226 q 899 282 896 263 q 887 365 906 331 q 833 424 868 400 q 749 458 797 447 q 651 469 701 469 q 493 439 565 469 l 542 513 q 588 574 571 557 q 618 592 606 592 q 642 579 631 592 q 672 552 654 567 q 719 525 690 538 q 794 513 749 513 q 878 535 843 513 q 932 591 913 557 q 953 665 951 625 q 939 738 956 704 q 886 793 922 771 q 793 815 850 815 q 691 779 739 815 q 603 692 643 743 q 528 586 563 642 q 467 492 494 531 l 558 1079 l 547 1089 l 138 1089 l 135 1068 q 181 1028 175 1068 q 175 925 186 988 "},"l":{"ha":539,"x_min":72,"x_max":704,"o":"m 96 421 q 79 283 86 357 q 88 146 72 208 q 151 42 104 83 q 293 0 197 0 q 456 38 385 0 q 577 139 526 75 q 659 285 628 203 q 704 458 690 368 l 640 458 q 574 251 618 319 q 494 182 531 182 q 447 232 463 182 q 446 382 431 282 l 557 1079 l 547 1089 l 138 1089 l 135 1068 q 180 1028 175 1068 q 175 925 185 988 l 96 421 "},"m":{"ha":1539,"x_min":32,"x_max":1704,"o":"m 32 22 l 414 22 l 468 365 q 493 465 476 418 q 528 547 510 513 q 567 602 547 582 q 600 622 586 622 q 620 598 615 622 q 617 519 625 574 l 536 22 l 918 22 l 964 313 q 994 444 975 386 q 1035 542 1014 501 q 1078 603 1057 582 q 1115 624 1099 624 q 1137 600 1132 624 q 1126 519 1142 576 l 1085 363 q 1065 235 1068 300 q 1082 119 1061 171 q 1153 33 1103 67 q 1294 0 1204 0 q 1456 38 1386 0 q 1577 139 1526 75 q 1659 285 1628 203 q 1704 458 1690 368 l 1640 458 q 1574 251 1617 319 q 1496 183 1532 183 q 1460 201 1474 183 q 1440 244 1446 218 q 1436 303 1435 271 q 1444 364 1438 335 l 1482 519 q 1488 640 1499 586 q 1449 734 1478 694 q 1378 795 1421 774 q 1286 817 1336 817 q 1119 752 1204 817 q 976 540 1033 688 q 974 653 986 603 q 933 740 961 704 q 864 796 904 776 q 778 815 824 815 q 697 800 739 815 q 614 751 654 785 q 538 666 574 718 q 474 540 501 614 l 510 772 l 499 782 l 89 782 l 86 761 q 132 721 126 761 q 126 618 138 681 l 32 22 "},"n":{"ha":1113,"x_min":32,"x_max":1278,"o":"m 32 22 l 414 22 l 461 313 q 499 460 475 400 q 552 556 524 519 q 610 610 581 593 q 663 626 639 626 q 703 601 690 626 q 700 519 715 576 l 658 363 q 638 235 642 300 q 656 119 635 171 q 727 33 676 67 q 868 0 778 0 q 1030 38 960 0 q 1151 139 1100 75 q 1233 285 1201 203 q 1278 458 1264 368 l 1214 458 q 1148 251 1190 319 q 1069 183 1106 183 q 1033 201 1047 183 q 1014 244 1019 218 q 1010 303 1008 271 q 1018 364 1011 335 l 1056 519 q 1059 634 1071 581 q 1015 728 1047 688 q 929 792 982 768 q 807 815 876 815 q 714 800 761 815 q 623 751 667 785 q 540 666 579 718 q 474 540 501 614 l 510 772 l 499 782 l 89 782 l 86 761 q 132 721 126 761 q 126 618 138 681 l 32 22 "},"o":{"ha":1118,"x_min":78,"x_max":1283,"o":"m 89 406 q 98 256 78 329 q 173 126 118 183 q 318 35 228 69 q 535 0 408 0 q 767 37 665 0 q 943 133 869 74 l 957 133 q 1063 152 1011 133 q 1160 210 1115 171 q 1237 312 1204 250 q 1283 458 1269 374 l 1219 458 q 1147 289 1203 350 q 1018 211 1090 228 q 1107 410 1092 304 q 1098 559 1118 486 q 1023 689 1078 632 q 878 781 968 746 q 661 815 789 815 q 433 780 535 815 q 259 687 332 744 q 143 556 186 629 q 89 406 100 482 m 543 65 q 460 116 488 65 q 427 243 432 167 q 438 408 422 319 q 484 572 453 496 q 559 699 515 649 q 654 750 603 750 q 716 726 692 750 q 754 663 740 703 q 771 572 768 624 q 768 463 774 519 q 722 475 750 475 q 661 456 690 475 q 625 397 632 438 q 640 301 617 346 q 704 221 663 256 q 633 109 674 153 q 543 65 592 65 "},"p":{"ha":1071,"x_min":-17,"x_max":1083,"o":"m 126 617 l -17 -286 l 343 -286 l 417 183 q 499 51 442 103 q 654 0 556 0 q 819 32 747 0 q 944 116 892 64 q 1028 235 996 168 q 1071 375 1060 303 q 1072 534 1083 456 q 1023 675 1060 613 q 924 776 986 738 q 774 815 861 815 q 606 775 675 815 q 493 669 538 735 l 510 771 l 499 781 l 89 781 l 86 760 q 132 719 126 760 q 126 617 138 679 m 546 104 q 473 185 499 106 q 471 424 447 264 q 540 630 492 563 q 633 699 588 697 q 679 680 658 699 q 713 624 700 661 q 728 533 725 588 q 718 407 731 479 q 642 180 693 256 q 546 104 592 104 "},"q":{"ha":1144,"x_min":81,"x_max":1310,"o":"m 93 438 q 92 278 81 357 q 141 138 104 200 q 240 36 178 75 q 390 -3 303 -3 q 541 30 478 -3 q 649 115 604 63 l 586 -285 l 946 -285 l 990 -6 q 1113 58 1060 13 q 1206 167 1167 104 q 1272 306 1246 231 q 1310 458 1297 381 l 1246 458 q 1175 243 1222 315 q 1090 171 1128 171 q 1047 210 1063 171 q 1043 329 1032 250 l 1115 782 l 931 782 l 749 625 q 667 760 725 707 q 510 813 610 813 q 344 781 417 813 q 220 697 272 749 q 136 577 168 644 q 93 438 104 510 m 529 114 q 451 188 481 114 q 446 406 422 261 q 523 634 472 558 q 619 707 574 710 q 691 627 665 706 q 693 389 717 549 q 624 181 672 249 q 529 114 576 114 "},"r":{"ha":774,"x_min":50,"x_max":939,"o":"m 57 761 q 67 684 50 721 q 126 629 85 647 l 101 458 l 165 458 l 185 567 q 212 629 188 608 q 265 649 236 650 l 368 649 l 331 421 q 314 283 321 357 q 322 146 307 208 q 385 42 338 83 q 528 0 432 0 q 690 38 619 0 q 812 139 761 75 q 894 285 863 203 q 939 458 925 368 l 875 458 q 808 251 851 319 q 729 182 765 182 q 681 232 697 182 q 681 382 664 282 l 743 772 l 744 772 l 733 782 l 475 782 q 391 790 422 782 q 341 809 360 797 q 310 835 322 821 q 284 860 297 849 q 251 880 271 872 q 194 888 231 888 q 104 850 143 888 q 57 761 65 813 "},"s":{"ha":915,"x_min":-7,"x_max":1081,"o":"m 1 274 q 31 159 -7 210 q 135 73 69 108 q 281 19 200 38 q 442 0 363 0 q 690 19 581 0 q 878 88 799 38 q 1009 228 958 139 q 1081 458 1060 317 l 1017 458 q 987 335 1006 388 q 947 249 968 283 q 905 199 926 215 q 865 185 883 183 q 904 282 896 232 q 890 403 917 353 q 817 493 864 454 q 715 565 771 532 q 611 632 658 597 q 535 710 564 667 q 515 811 507 753 l 372 796 q 249 758 297 788 q 174 692 201 728 q 135 620 147 656 q 121 565 124 585 l 103 458 l 167 458 l 185 567 q 246 478 208 519 q 326 402 283 438 q 410 335 368 367 q 486 275 453 304 q 539 219 519 246 q 553 164 558 192 q 502 92 544 115 q 411 68 460 68 q 355 76 382 68 q 308 99 328 83 q 277 137 288 114 q 272 190 267 160 q 290 248 279 226 q 313 283 301 269 q 335 306 325 297 q 346 328 344 315 q 336 361 349 344 q 301 391 324 378 q 249 413 279 404 q 185 421 218 421 q 61 385 110 421 q 1 274 13 350 "},"t":{"ha":603,"x_min":74,"x_max":768,"o":"m 83 346 q 85 219 74 282 q 128 108 96 157 q 216 30 161 60 q 347 0 271 0 q 488 23 422 0 q 608 100 554 46 q 703 242 663 154 q 768 458 744 329 l 704 458 q 672 337 693 389 q 626 251 651 285 q 575 199 601 217 q 524 182 549 182 q 456 232 481 182 q 446 382 431 282 l 494 690 l 672 690 l 688 782 l 508 782 l 547 1031 q 543 1037 544 1033 q 538 1040 542 1040 q 443 1021 483 1040 q 369 973 403 1001 q 306 911 335 944 q 244 849 276 878 q 176 801 213 821 q 89 782 139 782 l 83 782 l 74 717 l 142 717 l 83 346 "},"u":{"ha":1075,"x_min":72,"x_max":1240,"o":"m 96 421 q 79 283 86 357 q 88 146 72 208 q 151 42 104 83 q 293 0 197 0 q 485 55 406 0 q 617 197 564 110 q 633 121 621 157 q 669 58 644 85 q 733 15 694 31 q 829 0 772 0 q 992 38 921 0 q 1113 139 1063 75 q 1195 285 1164 203 q 1240 458 1226 368 l 1176 458 q 1110 251 1153 319 q 1031 182 1067 182 q 982 232 999 182 q 982 382 965 282 l 1044 772 l 1035 782 l 689 782 l 632 421 q 572 242 613 303 q 494 182 531 182 q 446 231 463 182 q 446 382 429 279 l 508 772 l 499 782 l 89 782 l 86 761 q 131 721 126 761 q 126 618 136 681 l 96 421 "},"v":{"ha":915,"x_min":72,"x_max":1081,"o":"m 101 460 q 85 360 94 413 q 74 257 76 308 q 79 159 72 206 q 110 77 86 113 q 178 21 133 42 q 294 0 222 0 q 465 24 386 0 q 610 88 544 47 q 727 183 675 128 q 818 301 779 239 q 828 318 824 310 q 838 335 832 326 q 886 283 858 300 q 942 267 914 267 q 1017 298 982 267 q 1067 388 1053 329 q 1074 423 1071 406 q 1081 458 1078 440 l 1017 458 q 1010 424 1014 440 q 1004 393 1007 408 q 984 347 997 361 q 956 332 971 332 q 929 346 942 332 q 910 385 917 360 q 903 449 903 411 q 915 538 903 488 q 921 567 918 553 q 926 596 924 581 q 930 745 940 685 q 895 843 919 806 q 837 897 871 881 q 767 914 803 914 q 676 887 717 914 q 629 818 636 860 q 631 747 622 775 q 656 697 639 718 q 694 657 672 675 q 738 618 717 639 q 797 484 794 560 q 764 339 799 408 q 669 228 731 272 q 532 183 608 183 q 473 211 492 183 q 449 281 454 239 q 448 370 443 322 q 458 458 453 418 l 508 772 l 499 782 l 89 782 l 86 761 q 122 744 111 761 q 134 705 132 728 q 133 658 136 682 q 126 618 129 633 l 101 460 "},"w":{"ha":1418,"x_min":74,"x_max":1583,"o":"m 103 460 q 87 360 96 413 q 76 257 78 308 q 81 159 74 206 q 111 77 88 113 q 179 21 135 42 q 296 0 224 0 q 485 53 406 0 q 615 192 564 106 q 631 117 618 151 q 668 56 643 82 q 734 15 693 29 q 835 0 775 0 q 999 27 924 0 q 1139 101 1075 54 q 1253 208 1203 147 q 1339 336 1303 269 q 1388 283 1360 300 q 1444 267 1415 267 q 1520 298 1485 267 q 1569 388 1556 329 q 1577 423 1574 406 q 1583 458 1581 440 l 1519 458 q 1514 424 1517 440 q 1507 393 1511 408 q 1460 332 1493 332 q 1415 380 1433 332 q 1414 517 1396 428 q 1424 556 1419 536 q 1431 596 1428 576 q 1434 745 1444 685 q 1399 843 1424 806 q 1341 897 1375 881 q 1271 914 1307 914 q 1181 887 1222 914 q 1133 818 1140 860 q 1135 747 1126 775 q 1160 697 1143 718 q 1199 657 1178 675 q 1242 618 1221 639 q 1293 532 1278 582 q 1299 432 1308 482 q 1269 340 1292 385 q 1211 260 1246 294 q 1131 204 1176 225 q 1036 183 1086 183 q 990 211 1003 183 q 978 281 978 239 q 985 370 978 322 q 999 458 993 418 l 1049 772 l 1039 782 l 629 782 l 626 761 q 662 744 651 761 q 674 705 672 728 q 673 658 676 682 q 667 618 669 633 l 642 460 q 640 451 640 456 q 639 443 640 447 q 574 247 615 311 q 497 183 533 183 q 451 211 464 183 q 439 281 439 239 q 447 370 439 322 q 460 458 454 418 l 510 772 l 500 782 l 90 782 l 88 761 q 123 744 113 761 q 135 705 133 728 q 134 658 138 682 q 128 618 131 633 l 103 460 "},"x":{"ha":1124,"x_min":100,"x_max":1289,"o":"m 164 458 q 199 585 179 549 q 243 622 219 622 q 285 599 264 622 q 328 542 307 576 q 370 466 350 507 q 408 389 390 425 l 111 22 l 208 22 l 443 321 l 490 229 q 577 110 528 156 q 681 41 626 65 q 792 8 736 17 q 900 0 849 0 q 1060 38 992 0 q 1174 140 1128 76 q 1249 287 1221 204 q 1289 458 1276 369 l 1225 458 q 1160 243 1201 308 q 1065 178 1118 178 q 999 198 1033 178 q 928 256 964 218 q 856 345 893 293 q 783 458 819 397 l 738 540 q 755 565 747 554 q 765 579 763 576 q 798 617 785 607 q 822 628 811 628 q 845 610 836 628 q 870 570 854 592 q 913 531 886 549 q 986 513 939 513 q 1069 535 1035 513 q 1124 591 1104 557 q 1145 665 1143 625 q 1131 738 1147 704 q 1078 793 1114 771 q 985 815 1042 815 q 911 801 946 815 q 845 763 876 786 q 786 708 814 739 q 733 646 758 678 q 721 630 729 642 q 703 604 713 618 l 610 772 l 592 782 l 394 782 q 273 748 325 782 q 185 665 221 714 q 128 559 149 615 q 100 458 107 503 l 164 458 "},"y":{"ha":1038,"x_min":83,"x_max":1203,"o":"m 107 494 q 90 356 97 431 q 99 219 83 282 q 162 115 115 157 q 304 74 208 74 q 478 117 404 74 q 603 233 551 161 l 575 51 q 443 1 503 33 q 347 -74 393 -26 q 290 -194 301 -122 q 297 -306 281 -257 q 347 -389 313 -356 q 428 -440 381 -422 q 531 -458 476 -458 q 652 -434 590 -458 q 767 -358 714 -410 q 862 -228 821 -307 q 919 -39 903 -149 l 919 -40 l 935 54 q 1032 104 989 74 q 1108 183 1075 135 q 1165 298 1142 231 q 1203 458 1188 365 l 1139 458 q 1076 254 1117 328 q 949 142 1035 181 l 1047 772 l 1038 782 l 690 782 l 644 490 q 586 313 625 371 q 511 254 547 254 q 460 305 478 254 q 457 456 442 356 l 508 772 l 499 782 l 89 782 l 86 761 q 131 721 126 761 q 126 618 136 681 l 107 494 m 413 -285 q 367 -255 381 -285 q 367 -183 353 -225 q 428 -95 382 -140 q 564 -19 475 -50 q 492 -223 538 -161 q 413 -285 447 -285 "},"z":{"ha":921,"x_min":26,"x_max":1086,"o":"m 32 -219 q 42 -308 26 -265 q 89 -385 57 -351 q 168 -438 121 -418 q 272 -458 215 -458 q 526 -410 417 -458 q 708 -285 636 -361 q 813 -115 781 -208 q 836 68 846 -21 q 943 134 900 94 q 1015 224 986 174 q 1060 335 1043 275 q 1086 458 1076 394 l 1022 458 q 983 308 1007 369 q 919 206 960 247 q 876 172 901 188 q 818 143 850 157 q 765 238 800 194 q 676 314 729 282 q 756 348 718 328 q 824 394 793 368 q 874 453 854 419 q 901 528 894 486 q 889 627 908 576 q 818 719 869 678 q 681 788 767 761 q 472 815 596 815 q 345 808 414 815 q 207 774 276 800 q 190 826 207 806 q 144 847 172 847 q 83 828 115 846 q 38 758 51 811 q 42 726 32 738 q 70 704 53 714 q 106 684 88 694 q 135 654 125 674 l 101 458 l 165 458 l 200 681 q 281 704 231 696 q 385 713 332 713 q 481 688 444 713 q 533 627 517 664 q 547 548 549 590 q 528 469 544 506 q 483 408 513 432 q 417 383 454 383 q 348 397 376 383 q 288 411 319 411 q 231 402 251 411 q 203 356 210 393 q 212 295 196 317 q 268 274 228 274 l 357 274 q 401 256 382 274 q 432 208 419 238 q 451 138 444 178 q 456 53 457 97 q 324 25 394 42 q 193 -22 254 8 q 88 -99 132 -51 q 32 -219 43 -146 m 199 -285 q 145 -260 164 -285 q 135 -201 126 -236 q 187 -126 144 -165 q 315 -57 229 -87 q 378 -38 344 -46 q 449 -24 413 -31 q 421 -123 440 -75 q 371 -208 401 -171 q 297 -266 340 -244 q 199 -285 254 -287 "},"B":{"ha":1522,"x_min":82,"x_max":1544,"o":"m 89 268 q 99 176 82 224 q 156 89 115 128 q 265 25 197 50 q 425 0 332 0 q 574 19 510 0 q 684 67 638 38 q 762 136 731 97 q 813 217 793 175 q 864 111 829 153 q 942 44 899 69 q 1030 10 985 19 q 1113 0 1075 0 q 1304 40 1219 0 q 1444 142 1389 79 q 1520 281 1499 204 q 1523 434 1542 358 q 1442 575 1504 510 q 1269 679 1381 640 q 1363 706 1318 689 q 1442 751 1407 724 q 1501 817 1478 778 q 1533 911 1525 857 q 1514 1050 1544 982 q 1413 1164 1483 1118 q 1207 1244 1333 1214 q 900 1274 1081 1274 q 657 1251 776 1274 q 441 1181 538 1228 q 281 1064 344 1135 q 201 897 217 993 q 203 809 193 846 q 233 749 213 772 q 282 714 253 725 q 342 703 311 703 q 451 738 400 703 q 511 835 501 772 q 512 869 514 853 q 507 901 510 885 q 503 936 504 918 q 504 975 501 954 q 553 1076 513 1032 q 651 1149 594 1119 q 770 1194 707 1179 q 886 1210 833 1210 q 1035 1183 975 1210 q 1129 1115 1094 1157 q 1175 1022 1164 1074 q 1178 919 1186 969 q 1155 844 1172 881 q 1112 781 1138 808 q 1052 738 1086 754 q 978 722 1018 722 l 968 657 q 1087 621 1040 657 q 1156 531 1133 585 q 1178 413 1178 476 q 1157 296 1178 350 q 1096 206 1136 242 q 997 169 1056 169 q 938 181 967 169 q 890 218 910 193 q 860 280 869 243 q 858 367 851 317 l 918 729 q 981 983 942 889 q 1074 1076 1021 1076 l 1079 1111 q 859 1081 951 1111 q 704 999 767 1051 q 608 878 642 947 q 561 729 574 808 l 472 194 q 433 100 461 129 q 375 71 404 71 q 317 101 333 71 q 303 169 300 132 q 327 238 307 207 q 381 268 347 268 q 390 327 394 300 q 367 374 385 354 q 324 404 350 393 q 269 415 297 415 q 149 372 199 415 q 89 268 99 329 "},"C":{"ha":1190,"x_min":135,"x_max":1263,"o":"m 154 686 q 157 438 135 561 q 243 218 179 315 q 414 60 307 121 q 671 0 521 0 q 860 33 769 0 q 1026 130 951 65 q 1153 291 1100 194 q 1226 514 1206 388 l 1163 514 q 1113 399 1150 449 q 1026 314 1076 349 q 920 262 976 279 q 813 244 864 244 q 658 286 719 244 q 563 395 597 328 q 518 549 528 463 q 519 727 508 636 q 560 905 531 818 q 632 1059 589 992 q 729 1168 675 1126 q 846 1210 783 1210 q 953 1154 913 1210 q 978 996 993 1099 q 953 917 971 953 q 929 844 935 881 q 936 790 925 814 q 969 748 947 765 q 1019 722 992 731 q 1076 713 1047 713 q 1199 765 1153 713 q 1254 892 1244 817 q 1242 1022 1263 954 q 1171 1145 1222 1089 q 1034 1238 1119 1201 q 825 1274 949 1274 q 560 1224 676 1274 q 358 1093 443 1175 q 223 905 274 1011 q 154 686 172 799 "},"D":{"ha":1585,"x_min":82,"x_max":1642,"o":"m 89 268 q 99 176 82 224 q 156 89 115 128 q 265 25 197 50 q 425 0 332 0 q 574 19 510 0 q 684 67 638 38 q 762 136 731 97 q 813 217 793 175 q 864 111 829 153 q 942 44 899 69 q 1030 10 985 19 q 1113 0 1075 0 q 1299 42 1214 0 q 1450 153 1385 83 q 1559 317 1515 224 q 1619 511 1603 410 q 1615 780 1642 644 q 1503 1025 1589 915 q 1269 1204 1418 1135 q 900 1274 1121 1274 q 657 1251 776 1274 q 441 1181 538 1228 q 281 1064 344 1135 q 201 897 217 993 q 203 809 193 846 q 235 749 214 772 q 285 714 257 725 q 342 703 314 703 q 451 738 400 703 q 511 835 501 772 q 512 869 514 853 q 507 901 510 885 q 503 936 504 918 q 504 975 501 954 q 553 1076 513 1032 q 651 1149 594 1119 q 770 1194 707 1179 q 886 1210 833 1210 q 1101 1153 1018 1210 q 1227 1008 1183 1097 q 1279 807 1271 918 q 1271 588 1288 696 q 1231 428 1257 504 q 1167 295 1204 353 q 1088 203 1131 238 q 997 169 1044 169 q 938 181 967 169 q 888 218 908 193 q 859 280 868 243 q 858 367 850 317 l 918 729 q 983 983 944 889 q 1074 1076 1021 1076 l 1079 1111 q 859 1081 951 1111 q 704 999 767 1051 q 608 878 642 947 q 561 729 574 808 l 472 194 q 433 100 461 129 q 375 71 404 71 q 317 101 333 71 q 303 169 300 132 q 327 238 307 207 q 381 268 347 268 q 390 327 394 300 q 367 374 385 354 q 324 404 350 393 q 269 415 297 415 q 149 372 199 415 q 89 268 99 329 "},"P":{"ha":1488,"x_min":82,"x_max":1586,"o":"m 89 268 q 99 176 82 224 q 156 89 115 128 q 265 25 197 50 q 425 0 332 0 q 631 39 551 0 q 759 134 711 78 q 828 253 807 190 q 858 367 850 317 l 864 401 l 935 401 q 1219 440 1103 401 q 1411 538 1336 478 q 1524 674 1486 599 q 1572 822 1561 749 q 1553 992 1586 911 q 1437 1136 1519 1074 q 1221 1236 1354 1199 q 900 1274 1088 1274 q 657 1251 776 1274 q 441 1181 538 1228 q 281 1064 344 1135 q 201 897 217 993 q 203 809 193 846 q 233 749 213 772 q 282 714 253 725 q 342 703 311 703 q 451 738 400 703 q 511 835 501 772 q 512 869 514 853 q 507 901 510 885 q 503 936 504 918 q 504 975 501 954 q 553 1076 513 1032 q 651 1149 594 1119 q 770 1194 707 1179 q 886 1210 833 1210 q 1056 1174 985 1210 q 1172 1083 1128 1139 q 1232 957 1215 1026 q 1238 821 1249 888 q 1204 712 1229 769 q 1135 604 1179 654 q 1027 517 1092 554 q 875 468 963 479 l 918 729 q 981 983 942 889 q 1074 1076 1021 1076 l 1079 1111 q 859 1081 951 1111 q 704 999 767 1051 q 608 878 642 947 q 561 729 574 808 l 472 194 q 433 100 461 129 q 375 71 404 71 q 317 101 333 71 q 303 169 300 132 q 327 238 307 207 q 381 268 347 268 q 390 327 394 300 q 367 374 385 354 q 324 404 350 393 q 269 415 297 415 q 149 372 199 415 q 89 268 99 329 "},"H":{"ha":1601,"x_min":126,"x_max":1649,"o":"m 133 268 q 143 176 126 224 q 201 89 160 128 q 309 25 242 50 q 469 0 376 0 q 676 39 596 0 q 805 134 757 78 q 874 253 853 190 q 903 367 894 317 l 957 708 l 1215 708 l 1151 294 q 1143 185 1142 239 q 1167 91 1144 132 q 1238 25 1189 50 q 1371 0 1286 0 q 1495 21 1439 0 q 1596 79 1551 42 l 1583 117 q 1522 150 1549 106 q 1510 293 1494 194 l 1649 1199 l 1304 1199 l 1289 1189 l 1226 782 l 968 782 l 1036 1208 q 942 1214 986 1208 q 852 1226 897 1219 q 758 1239 807 1233 q 651 1244 710 1244 q 461 1211 543 1244 q 321 1126 379 1178 q 229 1010 263 1074 q 186 886 196 947 q 183 803 179 843 q 204 734 188 764 q 248 687 221 704 q 314 669 275 669 q 424 699 372 669 q 485 792 475 729 q 485 826 488 810 q 481 858 483 842 q 476 893 478 875 q 478 932 475 911 q 503 1026 485 981 q 552 1106 521 1071 q 628 1163 583 1142 q 735 1183 674 1183 q 818 1180 774 1183 q 915 1167 863 1176 q 706 1028 775 1122 q 618 815 638 933 l 517 194 q 477 100 506 129 q 419 71 449 71 q 361 101 378 71 q 348 169 344 132 q 372 238 351 207 q 425 268 392 268 q 434 327 439 300 q 412 374 429 354 q 368 404 394 393 q 314 415 342 415 q 193 372 243 415 q 133 268 143 329 "},"I":{"ha":946,"x_min":126,"x_max":1036,"o":"m 133 268 q 143 176 126 224 q 201 89 160 128 q 309 25 242 50 q 469 0 376 0 q 676 39 596 0 q 805 134 757 78 q 874 253 853 190 q 903 367 894 317 l 1036 1208 q 942 1214 986 1208 q 852 1226 897 1219 q 758 1239 807 1233 q 651 1244 710 1244 q 461 1211 543 1244 q 321 1126 379 1178 q 229 1010 263 1074 q 186 886 196 947 q 186 803 179 843 q 213 734 193 764 q 263 687 233 704 q 332 669 293 669 q 433 699 390 669 q 485 792 475 729 q 485 826 488 810 q 481 858 483 842 q 476 893 478 875 q 478 932 475 911 q 503 1026 485 981 q 552 1106 521 1071 q 628 1163 583 1142 q 735 1183 674 1183 q 818 1180 774 1183 q 915 1167 863 1176 q 706 1028 775 1122 q 618 815 638 933 l 517 194 q 477 100 506 129 q 419 71 449 71 q 361 101 378 71 q 348 169 344 132 q 372 238 351 207 q 425 268 392 268 q 434 327 439 300 q 412 374 429 354 q 368 404 394 393 q 314 415 342 415 q 193 372 243 415 q 133 268 143 329 "},"R":{"ha":1563,"x_min":82,"x_max":1621,"o":"m 89 268 q 99 176 82 224 q 156 89 115 128 q 265 25 197 50 q 425 0 332 0 q 631 39 551 0 q 759 134 711 78 q 828 253 807 190 q 858 367 850 317 l 888 542 q 983 531 938 542 q 1063 497 1029 521 q 1112 435 1096 474 q 1119 340 1128 397 l 1113 294 q 1107 185 1106 238 q 1130 91 1108 132 q 1199 25 1151 50 q 1332 0 1247 0 q 1456 21 1400 0 q 1557 79 1513 42 l 1544 117 q 1510 120 1528 111 q 1481 151 1493 129 q 1464 208 1468 172 q 1468 293 1460 244 q 1431 469 1486 399 q 1238 575 1376 540 q 1495 700 1401 617 q 1604 879 1589 783 q 1572 1052 1621 978 q 1430 1176 1522 1126 q 1213 1249 1338 1225 q 956 1274 1089 1274 q 697 1250 825 1274 q 463 1179 568 1226 q 288 1062 358 1132 q 201 897 217 992 q 202 809 193 846 q 232 749 211 772 q 282 714 253 725 q 342 703 311 703 q 451 738 400 703 q 511 835 501 772 q 512 869 514 853 q 507 901 510 885 q 503 936 504 918 q 504 975 501 954 q 553 1076 513 1032 q 651 1149 594 1119 q 770 1194 707 1179 q 886 1210 833 1210 q 1063 1181 989 1210 q 1182 1107 1136 1153 q 1246 1003 1228 1061 q 1254 885 1264 944 q 1221 788 1247 835 q 1150 704 1194 742 q 1042 641 1106 667 q 899 608 979 615 l 918 729 q 981 983 942 889 q 1074 1076 1021 1076 l 1079 1111 q 859 1081 951 1111 q 704 999 767 1051 q 608 878 642 947 q 561 729 574 808 l 472 194 q 433 100 461 129 q 375 71 404 71 q 317 101 333 71 q 303 169 300 132 q 327 238 307 207 q 381 268 347 268 q 390 327 394 300 q 367 374 385 354 q 324 404 350 393 q 269 415 297 415 q 149 372 199 415 q 89 268 99 329 "},"K":{"ha":1593,"x_min":126,"x_max":1661,"o":"m 133 268 q 143 176 126 224 q 201 89 160 128 q 309 25 242 50 q 469 0 376 0 q 676 39 596 0 q 805 134 757 78 q 874 253 853 190 q 903 367 894 317 l 946 642 q 1040 621 994 636 q 1120 580 1086 606 q 1172 515 1154 554 q 1181 421 1189 475 l 1161 294 q 1154 185 1153 238 q 1177 91 1156 132 q 1247 25 1199 50 q 1381 0 1296 0 q 1505 21 1449 0 q 1606 79 1561 42 l 1593 117 q 1531 150 1558 106 q 1517 293 1504 194 l 1529 388 q 1518 486 1536 440 q 1465 569 1500 532 q 1381 635 1429 607 q 1276 682 1332 664 q 1524 806 1433 725 q 1629 981 1615 886 l 1661 1197 l 1306 1197 l 1275 986 q 1246 896 1269 940 q 1183 815 1222 851 q 1087 753 1143 779 q 958 715 1031 726 l 1036 1208 q 942 1214 986 1208 q 852 1226 897 1219 q 758 1239 807 1233 q 651 1244 710 1244 q 461 1211 543 1244 q 321 1126 379 1178 q 229 1010 263 1074 q 186 886 196 947 q 183 803 179 843 q 204 734 188 764 q 248 687 221 704 q 314 669 275 669 q 424 699 372 669 q 485 792 475 729 q 485 826 488 810 q 481 858 483 842 q 476 893 478 875 q 478 932 475 911 q 503 1026 485 981 q 552 1106 521 1071 q 628 1163 583 1142 q 735 1183 674 1183 q 818 1180 774 1183 q 915 1167 863 1176 q 706 1028 775 1122 q 618 815 638 933 l 517 194 q 477 100 506 129 q 419 71 449 71 q 361 101 378 71 q 348 169 344 132 q 372 238 351 207 q 425 268 392 268 q 434 327 439 300 q 412 374 429 354 q 368 404 394 393 q 314 415 342 415 q 193 372 243 415 q 133 268 143 329 "},"L":{"ha":1433,"x_min":85,"x_max":1435,"o":"m 92 268 q 101 177 85 224 q 157 92 117 131 q 262 27 197 53 q 418 0 326 1 l 442 0 q 630 8 532 1 q 819 24 728 15 q 988 38 911 32 q 1114 44 1065 44 q 1178 40 1138 44 q 1259 24 1218 36 q 1333 -7 1300 13 q 1374 -56 1365 -26 q 1420 31 1406 -24 q 1420 137 1435 85 q 1357 226 1406 189 q 1214 264 1308 264 q 1102 246 1150 264 q 1010 202 1054 228 q 921 147 967 176 q 815 96 875 118 l 881 501 q 1059 556 974 519 q 1213 649 1144 593 q 1328 781 1282 706 q 1388 950 1374 856 q 1376 1090 1399 1029 q 1308 1192 1354 1151 q 1198 1255 1263 1233 q 1063 1276 1133 1276 q 910 1251 988 1276 q 765 1175 832 1226 q 650 1045 699 1124 q 583 860 601 967 l 539 590 q 440 682 468 626 q 419 782 413 738 q 439 822 424 806 q 472 857 454 839 q 504 898 489 875 q 525 957 519 921 q 495 1050 533 1010 q 392 1090 457 1090 q 317 1074 351 1090 q 255 1030 282 1058 q 210 965 228 1001 q 186 886 193 928 q 190 771 178 831 q 242 659 203 711 q 351 565 282 607 q 524 503 421 524 l 472 194 q 434 100 461 129 q 378 71 407 71 q 319 101 336 71 q 306 169 303 132 q 330 238 310 207 q 383 268 350 268 q 392 327 397 300 q 370 374 388 354 q 326 404 353 393 q 272 415 300 415 q 151 372 201 415 q 92 268 101 329 m 893 576 l 961 989 q 1024 1156 981 1106 q 1111 1207 1067 1207 q 1207 1155 1181 1207 q 1219 1015 1233 1103 q 1196 913 1214 975 q 1142 785 1178 850 q 1045 664 1106 721 q 893 576 985 607 "},"F":{"ha":1353,"x_min":126,"x_max":1658,"o":"m 133 268 q 143 176 126 224 q 201 89 160 128 q 309 25 242 50 q 469 0 376 0 q 676 39 596 0 q 805 134 757 78 q 874 253 853 190 q 903 367 894 317 l 958 708 l 1360 708 l 1369 782 l 969 782 l 1025 1142 q 1138 1083 1086 1119 q 1238 1013 1189 1047 q 1335 955 1286 979 q 1443 931 1385 931 q 1585 974 1538 931 q 1645 1075 1632 1017 q 1643 1192 1658 1133 q 1596 1283 1628 1251 q 1555 1235 1588 1254 q 1481 1203 1522 1215 q 1400 1188 1440 1192 q 1336 1183 1360 1183 q 1174 1193 1253 1183 q 1013 1214 1094 1203 q 844 1235 932 1225 q 651 1244 756 1244 q 461 1211 543 1244 q 321 1126 379 1178 q 229 1010 263 1074 q 186 886 196 947 q 183 803 179 843 q 204 734 188 764 q 248 687 221 704 q 314 669 275 669 q 424 699 372 669 q 485 792 475 729 q 485 826 488 810 q 481 858 483 842 q 476 893 478 875 q 478 932 475 911 q 503 1026 485 981 q 552 1106 521 1071 q 628 1163 583 1142 q 735 1183 674 1183 q 818 1180 774 1183 q 915 1167 863 1176 q 706 1028 775 1122 q 618 815 638 933 l 517 194 q 477 100 506 129 q 419 71 449 71 q 361 101 378 71 q 348 169 344 132 q 372 238 351 207 q 425 268 392 268 q 434 327 439 300 q 412 374 429 354 q 368 404 394 393 q 314 415 342 415 q 193 372 243 415 q 133 268 143 329 "},"G":{"ha":1265,"x_min":135,"x_max":1306,"o":"m 154 686 q 157 438 135 561 q 243 218 179 315 q 414 60 307 121 q 671 0 521 0 q 767 3 715 0 q 885 12 819 7 q 1030 20 950 17 q 1210 24 1110 24 l 1306 635 l 1296 644 l 769 643 l 761 579 l 999 579 l 947 254 q 894 119 932 158 q 804 79 856 79 q 644 133 707 79 q 549 273 581 186 q 511 469 517 360 q 522 690 506 579 q 567 884 538 790 q 640 1050 597 978 q 735 1166 683 1122 q 846 1210 788 1210 q 953 1154 913 1210 q 978 996 993 1099 q 953 917 971 953 q 929 844 935 881 q 936 790 925 814 q 969 748 947 765 q 1019 722 992 731 q 1076 713 1047 713 q 1199 765 1153 713 q 1254 892 1244 817 q 1242 1022 1263 954 q 1171 1145 1222 1089 q 1034 1238 1119 1201 q 825 1274 949 1274 q 560 1224 676 1274 q 358 1093 443 1175 q 223 905 274 1011 q 154 686 172 799 "},"E":{"ha":1482,"x_min":126,"x_max":1658,"o":"m 133 268 q 142 177 126 224 q 199 92 158 131 q 303 27 239 53 q 460 0 368 1 l 483 0 q 672 8 574 1 q 861 24 769 15 q 1030 38 953 32 q 1156 44 1107 44 q 1219 40 1179 44 q 1301 24 1260 36 q 1374 -7 1342 13 q 1415 -56 1407 -26 q 1462 31 1447 -24 q 1462 137 1476 85 q 1399 226 1447 189 q 1256 264 1350 264 q 1144 246 1192 264 q 1052 202 1096 228 q 963 147 1008 176 q 857 96 917 118 l 958 708 l 1360 708 l 1369 782 l 969 782 l 1025 1142 q 1138 1083 1086 1119 q 1238 1013 1189 1047 q 1335 955 1286 979 q 1443 931 1385 931 q 1585 974 1538 931 q 1645 1075 1632 1017 q 1643 1192 1658 1133 q 1596 1283 1628 1251 q 1555 1235 1588 1254 q 1481 1203 1522 1215 q 1400 1188 1440 1192 q 1336 1183 1360 1183 q 1174 1193 1253 1183 q 1013 1214 1094 1203 q 844 1235 932 1225 q 651 1244 756 1244 q 461 1211 543 1244 q 321 1126 379 1178 q 229 1010 263 1074 q 186 886 196 947 q 183 803 179 843 q 204 734 188 764 q 248 687 221 704 q 314 669 275 669 q 424 699 372 669 q 485 792 475 729 q 485 826 488 810 q 481 858 483 842 q 476 893 478 875 q 478 932 475 911 q 503 1026 485 981 q 552 1106 521 1071 q 628 1163 583 1142 q 735 1183 674 1183 q 818 1180 774 1183 q 915 1167 863 1176 q 706 1028 775 1122 q 618 815 638 933 l 517 194 q 477 100 506 129 q 419 71 449 71 q 361 101 378 71 q 348 169 344 132 q 372 238 351 207 q 425 268 392 268 q 434 327 439 300 q 412 374 429 354 q 368 404 394 393 q 314 415 342 415 q 193 372 243 415 q 133 268 143 329 "},"T":{"ha":1239,"x_min":179,"x_max":1403,"o":"m 186 886 q 183 803 179 843 q 204 734 188 764 q 248 687 221 704 q 314 669 275 669 q 424 699 372 669 q 485 792 475 729 q 485 826 488 810 q 481 858 483 842 q 476 893 478 875 q 478 932 475 911 q 502 1026 485 981 q 549 1106 519 1071 q 622 1163 578 1142 q 726 1183 665 1183 q 817 1168 778 1183 q 889 1129 857 1153 q 746 994 794 1076 q 682 815 697 913 l 581 194 q 541 100 569 129 q 483 71 513 71 q 425 101 442 71 q 412 169 408 132 q 435 238 415 207 q 489 268 456 268 q 498 327 503 300 q 476 374 493 354 q 432 404 458 393 q 378 415 406 415 q 257 372 307 415 q 197 268 207 329 q 207 176 190 224 q 265 89 224 128 q 373 25 306 50 q 533 0 440 0 q 740 39 660 0 q 869 134 821 78 q 938 253 917 190 q 967 367 958 317 l 1063 974 q 1121 942 1090 954 q 1189 931 1151 931 q 1331 975 1283 931 q 1391 1078 1379 1019 q 1383 1197 1403 1138 q 1321 1283 1363 1256 q 1267 1208 1306 1228 q 1171 1188 1228 1188 q 1069 1197 1125 1188 q 949 1216 1013 1206 q 813 1235 885 1226 q 664 1244 742 1244 q 472 1211 556 1244 q 327 1126 388 1178 q 231 1010 267 1074 q 186 886 196 947 "},"S":{"ha":1068,"x_min":93,"x_max":1178,"o":"m 108 397 q 124 223 93 297 q 217 99 156 149 q 365 24 279 49 q 543 0 450 0 q 720 22 632 0 q 883 88 808 44 q 1009 197 957 132 q 1078 350 1061 263 q 1063 535 1099 457 q 963 673 1028 614 q 819 778 899 732 q 671 869 739 825 q 561 961 603 914 q 529 1071 519 1008 q 555 1134 536 1107 q 600 1179 574 1161 q 658 1206 626 1197 q 722 1215 690 1215 q 783 1206 754 1215 q 833 1179 813 1197 q 865 1134 854 1161 q 869 1071 875 1107 q 857 1034 865 1047 q 839 1009 849 1021 q 820 983 829 997 q 807 943 811 968 q 814 885 803 911 q 847 842 825 860 q 899 816 868 825 q 963 807 929 807 q 1029 817 996 807 q 1090 847 1063 826 q 1138 897 1118 867 q 1165 971 1158 928 q 1145 1103 1178 1046 q 1050 1198 1113 1160 q 903 1255 988 1236 q 729 1274 819 1274 q 550 1255 639 1274 q 388 1199 461 1236 q 264 1105 314 1161 q 201 974 214 1049 q 208 831 189 892 q 266 722 226 769 q 360 638 306 675 q 473 569 415 601 q 586 503 531 536 q 683 430 642 469 q 746 340 724 390 q 758 221 768 289 q 692 103 747 142 q 572 64 638 64 q 500 78 535 64 q 440 119 465 92 q 403 187 415 146 q 399 282 390 228 q 411 319 401 306 q 431 344 421 332 q 451 370 442 356 q 465 410 461 385 q 460 476 471 447 q 428 525 450 506 q 378 554 407 544 q 315 564 349 564 q 247 553 282 564 q 184 522 213 543 q 135 470 156 501 q 108 397 115 439 "},"O":{"ha":1486,"x_min":129,"x_max":1518,"o":"m 150 654 q 152 416 129 533 q 245 206 175 299 q 435 57 315 114 q 726 0 554 0 q 1031 55 896 0 q 1265 199 1167 110 q 1422 404 1363 289 q 1500 639 1482 519 q 1493 872 1518 758 q 1398 1076 1468 986 q 1210 1219 1328 1165 q 924 1274 1092 1274 q 649 1238 769 1274 q 443 1145 528 1203 q 309 1016 358 1088 q 249 871 260 944 q 256 755 239 811 q 317 654 272 699 l 150 654 m 736 79 q 615 119 664 79 q 537 225 565 158 q 499 378 508 292 q 497 560 489 465 q 647 543 563 543 l 656 561 q 575 693 594 617 q 567 850 556 769 q 608 983 578 918 q 685 1098 639 1047 q 789 1179 731 1149 q 914 1210 847 1210 q 1044 1163 993 1210 q 1124 1037 1096 1115 q 1156 858 1151 958 q 1144 653 1160 758 q 1092 443 1128 546 q 1004 259 1057 340 q 884 128 951 178 q 736 79 817 79 "},"U":{"ha":1649,"x_min":171,"x_max":1693,"o":"m 182 856 q 203 724 171 778 q 311 669 235 669 q 421 699 369 669 q 482 792 472 729 q 483 826 485 810 q 478 858 481 842 q 474 893 475 875 q 475 932 472 911 q 495 1008 481 965 q 533 1088 510 1050 q 588 1151 556 1125 q 661 1176 621 1176 q 726 1140 707 1176 q 735 1042 744 1104 l 640 421 q 638 236 624 315 q 689 105 653 157 q 777 26 725 53 q 889 0 829 0 q 1051 47 969 0 q 1193 188 1132 93 q 1207 114 1196 149 q 1244 54 1218 79 q 1312 15 1269 29 q 1418 0 1354 0 q 1542 21 1486 0 q 1643 79 1599 42 l 1631 117 q 1596 121 1613 111 q 1567 156 1579 131 q 1552 220 1556 181 q 1557 314 1549 260 l 1693 1188 l 1683 1197 l 1338 1197 l 1224 458 q 1194 337 1214 389 q 1152 251 1175 285 q 1105 199 1129 217 q 1058 182 1081 182 q 997 232 1019 182 q 990 382 975 282 l 1067 867 q 1059 1069 1086 994 q 979 1183 1032 1144 q 860 1233 926 1222 q 735 1244 793 1244 q 506 1208 606 1244 q 338 1113 407 1171 q 231 987 269 1056 q 182 856 192 918 "},"V":{"ha":1579,"x_min":171,"x_max":1625,"o":"m 182 856 q 203 724 171 778 q 311 669 235 669 q 421 699 369 669 q 482 792 472 729 q 483 826 485 810 q 478 858 481 842 q 474 893 475 875 q 475 932 472 911 q 495 1008 481 965 q 533 1088 510 1050 q 588 1151 556 1125 q 661 1176 621 1176 q 726 1140 707 1176 q 735 1042 744 1104 l 642 421 q 645 238 626 317 q 707 105 664 158 q 812 25 750 51 q 942 -1 874 -1 q 1191 70 1076 -1 q 1392 251 1306 142 q 1535 492 1479 361 q 1610 743 1592 624 q 1624 935 1625 843 q 1603 1097 1622 1026 q 1548 1208 1585 1167 q 1456 1249 1511 1249 q 1382 1227 1413 1249 q 1346 1174 1351 1206 q 1353 1112 1340 1138 q 1388 1060 1365 1086 q 1436 1003 1410 1035 q 1482 926 1463 972 q 1510 814 1501 881 q 1504 650 1518 747 q 1458 495 1493 571 q 1375 357 1424 419 q 1240 230 1313 278 q 1103 182 1168 182 q 1013 233 1047 182 q 992 382 978 285 l 1067 867 q 1059 1069 1086 994 q 979 1183 1032 1144 q 860 1233 926 1222 q 735 1244 793 1244 q 506 1208 606 1244 q 338 1113 407 1171 q 231 987 269 1056 q 182 856 192 918 "},"W":{"ha":2069,"x_min":171,"x_max":2153,"o":"m 182 856 q 203 724 171 778 q 311 669 235 669 q 421 699 369 669 q 482 792 472 729 q 483 826 485 810 q 478 858 481 842 q 474 893 475 875 q 475 932 472 911 q 495 1008 481 965 q 533 1088 510 1050 q 588 1151 556 1125 q 661 1176 621 1176 q 726 1140 707 1176 q 735 1042 744 1104 l 640 421 q 639 236 624 315 q 690 105 654 157 q 778 26 725 53 q 889 0 831 0 q 1066 57 976 0 q 1217 226 1156 114 q 1308 56 1239 113 q 1464 0 1376 0 q 1689 53 1588 0 q 1870 195 1790 107 q 2008 396 1950 283 q 2099 625 2065 508 q 2143 854 2133 742 q 2138 1055 2153 967 q 2084 1197 2124 1143 q 1978 1250 2044 1250 q 1904 1228 1935 1250 q 1868 1175 1874 1207 q 1875 1113 1863 1139 q 1910 1062 1888 1088 q 1958 1005 1932 1036 q 2004 928 1985 974 q 2032 815 2024 882 q 2026 651 2040 749 q 1981 497 2015 572 q 1897 358 1946 421 q 1768 231 1836 279 q 1635 182 1700 182 q 1574 232 1596 182 q 1567 382 1551 282 l 1694 1200 l 1338 1200 l 1217 421 q 1152 240 1197 299 q 1063 182 1107 182 q 999 232 1022 182 q 990 382 975 282 l 1067 867 q 1059 1069 1086 994 q 979 1183 1032 1144 q 860 1233 926 1222 q 735 1244 793 1244 q 506 1208 606 1244 q 338 1113 407 1171 q 231 987 269 1056 q 182 856 192 918 "},"J":{"ha":985,"x_min":186,"x_max":1150,"o":"m 215 -194 q 222 -306 206 -257 q 270 -388 238 -354 q 350 -440 303 -422 q 450 -458 397 -458 q 572 -434 510 -458 q 690 -359 635 -410 q 786 -229 744 -308 q 844 -39 828 -150 l 844 -40 l 860 54 q 960 104 914 74 q 1044 183 1007 135 q 1108 298 1082 231 q 1150 458 1135 365 l 1086 458 q 1013 253 1064 326 q 874 142 961 181 l 1043 1208 q 949 1214 993 1208 q 859 1226 904 1219 q 765 1239 814 1233 q 658 1244 717 1244 q 468 1211 550 1244 q 328 1126 386 1178 q 236 1010 269 1074 q 193 886 203 947 q 190 803 186 843 q 211 734 194 764 q 255 687 228 704 q 321 669 282 669 q 431 699 379 669 q 492 792 482 729 q 492 826 494 810 q 488 858 490 842 q 483 893 485 875 q 485 932 482 911 q 510 1026 492 981 q 559 1106 528 1071 q 635 1163 590 1142 q 742 1183 681 1183 q 825 1180 781 1183 q 922 1167 869 1176 q 713 1028 782 1122 q 625 815 644 933 l 506 54 q 371 3 432 36 q 273 -74 319 -26 q 215 -194 226 -122 m 342 -285 q 301 -260 318 -285 q 292 -194 285 -236 q 320 -128 299 -157 q 371 -79 342 -100 q 433 -44 400 -58 q 493 -19 465 -29 q 422 -223 467 -161 q 342 -285 376 -285 "},"M":{"ha":2104,"x_min":179,"x_max":2119,"o":"m 186 886 q 183 803 179 843 q 204 734 188 764 q 248 687 221 704 q 314 669 275 669 q 424 699 372 669 q 485 792 475 729 q 485 826 488 810 q 481 858 483 842 q 476 893 478 875 q 478 932 475 911 q 503 1026 485 981 q 552 1106 521 1071 q 628 1163 583 1142 q 735 1183 674 1183 q 818 1180 774 1183 q 915 1167 863 1176 q 706 1028 775 1122 q 618 815 638 933 l 494 24 l 904 24 l 1031 818 q 1090 1025 1053 957 q 1158 1093 1128 1093 q 1197 1044 1185 1093 q 1194 894 1210 994 l 1053 24 l 1463 24 l 1589 818 q 1649 1025 1611 957 q 1718 1093 1686 1093 q 1757 1044 1744 1093 q 1753 894 1769 994 l 1654 294 q 1646 185 1644 239 q 1669 91 1647 132 q 1740 25 1692 50 q 1874 0 1789 0 q 1998 21 1942 0 q 2099 79 2054 42 l 2086 117 q 2024 150 2051 106 q 2013 293 1997 194 l 2103 856 q 2108 1040 2119 961 q 2066 1172 2097 1119 q 1988 1250 2035 1224 q 1889 1276 1942 1276 q 1793 1256 1842 1276 q 1700 1196 1744 1236 q 1617 1095 1656 1156 q 1554 954 1579 1035 q 1540 1095 1557 1035 q 1491 1196 1522 1156 q 1418 1256 1460 1236 q 1331 1276 1376 1276 q 1236 1256 1285 1276 q 1142 1197 1188 1236 q 1060 1098 1097 1157 q 997 960 1022 1039 l 1036 1208 q 942 1214 986 1208 q 852 1226 897 1219 q 758 1239 807 1233 q 651 1244 710 1244 q 461 1211 543 1244 q 321 1126 379 1178 q 229 1010 263 1074 q 186 886 196 947 "},"N":{"ha":1617,"x_min":179,"x_max":1631,"o":"m 186 886 q 183 803 179 843 q 204 734 188 764 q 248 687 221 704 q 314 669 275 669 q 424 699 372 669 q 485 792 475 729 q 485 826 488 810 q 481 858 483 842 q 476 893 478 875 q 478 932 475 911 q 503 1026 485 981 q 552 1106 521 1071 q 628 1163 583 1142 q 735 1183 674 1183 q 818 1180 774 1183 q 915 1167 863 1176 q 706 1028 775 1122 q 618 815 638 933 l 494 24 l 904 24 l 1031 818 q 1103 1025 1053 957 q 1197 1093 1153 1093 q 1258 1044 1236 1093 q 1264 894 1281 994 l 1186 421 q 1164 276 1175 350 q 1166 140 1153 201 q 1228 40 1179 79 q 1386 0 1278 0 q 1510 21 1454 0 q 1611 79 1567 42 l 1599 117 q 1563 121 1581 111 q 1535 156 1546 131 q 1520 220 1524 181 q 1525 314 1517 260 l 1614 856 q 1617 1040 1631 961 q 1567 1172 1603 1119 q 1478 1250 1531 1224 q 1367 1276 1426 1276 q 1260 1256 1314 1276 q 1156 1194 1206 1235 q 1064 1093 1106 1154 q 996 951 1022 1032 l 1036 1208 q 942 1214 986 1208 q 852 1226 897 1219 q 758 1239 807 1233 q 651 1244 710 1244 q 461 1211 543 1244 q 321 1126 379 1178 q 229 1010 263 1074 q 186 886 196 947 "},"Z":{"ha":1147,"x_min":72,"x_max":1265,"o":"m 88 261 q 106 97 72 168 q 208 -22 140 25 q 367 -94 275 -69 q 558 -118 458 -118 q 800 -83 693 -118 q 983 10 907 -47 q 1105 142 1060 68 q 1162 292 1150 215 q 1151 443 1174 369 q 1069 574 1128 517 q 913 667 1010 632 q 678 703 815 703 q 875 769 776 732 q 1056 858 974 807 q 1194 981 1138 910 q 1265 1147 1251 1051 l 1249 1165 q 1142 1183 1203 1165 q 1013 1221 1082 1200 q 869 1259 944 1242 q 718 1276 794 1276 q 533 1251 610 1276 q 405 1187 456 1226 q 327 1099 354 1147 q 293 1001 300 1050 q 297 912 285 950 q 333 849 308 874 q 390 812 357 824 q 460 800 424 800 q 570 829 518 800 q 640 915 622 858 q 598 958 613 925 q 590 1033 583 992 q 616 1118 597 1085 q 660 1172 635 1151 q 717 1200 686 1192 q 781 1208 749 1208 q 897 1189 842 1208 q 979 1150 953 1169 q 913 1020 961 1096 q 792 875 864 944 q 631 757 721 806 q 439 708 540 708 l 431 657 q 634 613 556 664 q 751 482 713 563 q 790 305 789 401 q 762 126 792 208 q 675 -12 732 43 q 540 -68 618 -68 q 413 -15 463 -68 q 378 146 363 38 q 390 183 381 169 q 410 208 400 196 q 431 234 421 219 q 444 274 440 249 q 440 340 450 311 q 408 389 429 369 q 358 418 388 408 q 296 428 328 428 q 228 417 263 428 q 165 386 193 407 q 115 334 136 365 q 88 261 94 303 "},"Q":{"ha":1463,"x_min":132,"x_max":1515,"o":"m 150 654 q 146 457 132 553 q 206 278 160 361 q 330 130 251 194 q 521 26 408 65 q 692 -35 604 -3 q 860 -98 779 -67 q 1008 -158 940 -129 q 1117 -206 1075 -186 q 1172 -236 1138 -215 q 1239 -285 1207 -257 q 1292 -344 1271 -312 q 1308 -406 1313 -375 q 1388 -347 1351 -389 q 1433 -251 1424 -304 q 1414 -144 1442 -199 q 1300 -49 1386 -89 q 1188 -13 1246 -24 q 1067 1 1129 -3 q 944 3 1006 4 q 822 6 882 3 q 1097 85 975 22 q 1304 240 1218 147 q 1441 444 1390 332 q 1503 672 1492 557 q 1487 895 1515 786 q 1388 1088 1458 1004 q 1201 1223 1317 1172 q 924 1274 1086 1274 q 649 1238 769 1274 q 443 1145 528 1203 q 309 1016 358 1088 q 249 871 260 944 q 256 755 239 811 q 317 654 272 699 l 150 654 m 736 79 q 615 119 664 79 q 537 225 565 158 q 499 378 508 292 q 497 560 489 465 q 647 543 563 543 l 656 561 q 575 693 594 617 q 567 850 556 769 q 608 983 578 918 q 685 1098 639 1047 q 789 1179 731 1149 q 914 1210 847 1210 q 1045 1161 993 1210 q 1125 1033 1097 1113 q 1156 852 1153 954 q 1143 644 1160 750 q 1090 437 1126 539 q 1002 256 1054 335 q 883 128 950 176 q 736 79 815 79 "},"Y":{"ha":1638,"x_min":171,"x_max":1803,"o":"m 182 856 q 203 724 171 778 q 311 669 235 669 q 421 699 369 669 q 482 792 472 729 q 483 826 485 810 q 478 858 481 842 q 474 893 475 875 q 475 932 472 911 q 495 1008 481 965 q 533 1088 510 1050 q 588 1151 556 1125 q 661 1176 621 1176 q 726 1140 707 1176 q 735 1042 744 1104 l 660 542 q 658 357 643 436 q 710 226 674 278 q 798 147 746 174 q 910 121 850 121 q 1058 160 983 121 q 1193 279 1133 200 l 1158 54 q 1024 3 1085 36 q 926 -74 972 -26 q 868 -194 879 -122 q 874 -306 858 -257 q 923 -388 890 -354 q 1003 -440 956 -422 q 1103 -458 1050 -458 q 1225 -434 1163 -458 q 1342 -359 1288 -410 q 1439 -229 1397 -308 q 1497 -39 1481 -150 l 1497 -40 l 1513 54 q 1613 104 1567 74 q 1697 183 1660 135 q 1761 298 1735 231 q 1803 458 1788 365 l 1739 458 q 1665 253 1717 326 q 1526 142 1614 181 l 1696 1208 l 1336 1208 l 1228 508 q 1158 353 1200 404 q 1076 303 1115 303 q 1016 353 1038 303 q 1010 503 994 403 l 1067 867 q 1059 1069 1086 994 q 979 1183 1032 1144 q 860 1233 926 1222 q 735 1244 793 1244 q 506 1208 606 1244 q 338 1113 407 1171 q 231 987 269 1056 q 182 856 192 918 m 994 -285 q 954 -260 971 -285 q 944 -194 938 -236 q 973 -128 951 -157 q 1024 -79 994 -100 q 1085 -44 1053 -58 q 1146 -19 1118 -29 q 1074 -223 1119 -161 q 994 -285 1029 -285 "},"X":{"ha":1450,"x_min":179,"x_max":1590,"o":"m 186 886 q 183 803 179 843 q 204 734 188 764 q 248 687 221 704 q 314 669 275 669 q 424 699 372 669 q 485 792 475 729 q 485 826 488 810 q 481 858 483 842 q 476 893 478 875 q 478 932 475 911 q 503 1026 485 981 q 552 1106 521 1071 q 628 1163 583 1142 q 735 1183 674 1183 q 818 1180 774 1183 q 915 1167 863 1176 q 815 1108 854 1144 q 758 1023 776 1071 q 742 919 740 975 q 764 806 743 864 l 821 601 l 392 24 l 496 24 l 849 500 l 908 285 q 952 178 924 229 q 1026 87 981 126 q 1134 24 1071 47 q 1282 0 1197 0 q 1397 21 1350 0 q 1472 79 1444 42 l 1443 117 q 1367 150 1413 106 q 1293 293 1321 194 l 1186 676 l 1590 1199 l 1490 1199 l 1475 1189 l 1157 776 l 1036 1208 q 942 1214 986 1208 q 852 1226 897 1219 q 758 1239 807 1233 q 651 1244 710 1244 q 461 1211 543 1244 q 321 1126 379 1178 q 229 1010 263 1074 q 186 886 196 947 "},"A":{"ha":1764,"x_min":82,"x_max":1879,"o":"m 89 268 q 99 176 82 224 q 156 89 115 128 q 265 25 197 50 q 425 0 332 0 q 547 11 474 0 q 700 60 619 22 q 858 169 781 97 q 992 364 935 242 l 1113 624 l 1368 624 l 1314 294 q 1306 185 1304 239 q 1329 91 1307 132 q 1400 25 1351 50 q 1533 0 1449 0 q 1658 21 1601 0 q 1758 79 1714 42 l 1746 117 q 1684 150 1711 106 q 1672 293 1657 194 l 1786 1033 q 1815 1136 1796 1096 q 1875 1176 1835 1176 l 1879 1197 q 1708 1209 1810 1197 q 1496 1235 1606 1221 q 1281 1260 1386 1249 q 1101 1272 1176 1272 q 793 1237 925 1272 q 572 1145 661 1201 q 435 1022 483 1089 q 378 889 388 954 q 377 807 371 846 q 403 739 383 768 q 453 692 422 710 q 528 675 485 675 q 606 690 567 675 q 672 734 644 706 q 713 802 700 763 q 715 890 726 842 q 714 963 707 922 q 759 1068 724 1024 q 845 1141 794 1113 q 959 1183 896 1169 q 1088 1196 1022 1196 l 1206 1196 q 1062 1121 1125 1165 q 952 1028 999 1076 q 874 931 906 979 q 826 844 843 882 l 610 365 q 572 291 599 340 q 511 192 544 242 q 442 107 478 143 q 375 71 406 71 q 317 101 333 71 q 303 169 300 132 q 327 238 307 207 q 381 268 347 268 q 390 327 394 300 q 367 374 385 354 q 324 404 350 393 q 269 415 297 415 q 149 372 199 415 q 89 268 99 329 m 1381 697 l 1147 697 q 1224 869 1188 786 q 1299 1017 1261 951 q 1376 1128 1336 1083 q 1463 1183 1417 1172 l 1381 697 "},".":{"ha":363,"x_min":58,"x_max":340,"o":"m 64 110 q 89 34 58 68 q 186 0 119 0 q 294 35 257 0 q 335 115 331 71 q 313 196 340 160 q 221 232 285 232 q 110 193 149 232 q 64 110 71 154 "},",":{"ha":363,"x_min":58,"x_max":339,"o":"m 64 111 q 90 34 58 67 q 165 1 122 1 q 179 -4 176 1 q 181 -18 182 -10 q 176 -35 181 -26 q 169 -49 172 -43 l 114 -125 q 112 -133 111 -128 q 114 -140 113 -137 q 128 -144 121 -147 q 196 -96 161 -124 q 260 -35 231 -68 q 310 37 289 -1 q 335 117 331 75 q 311 196 339 160 q 219 232 283 232 q 109 194 149 232 q 64 111 69 156 "}}}
